<mxfile host="Electron" agent="Mozilla/5.0 (Windows NT 10.0; Win64; x64) AppleWebKit/537.36 (KHTML, like Gecko) draw.io/28.2.5 Chrome/138.0.7204.251 Electron/37.6.1 Safari/537.36" version="28.2.5">
  <diagram id="C5RBs43oDa-KdzZeNtuy" name="Page-1">
    <mxGraphModel dx="908" dy="981" grid="1" gridSize="10" guides="1" tooltips="1" connect="1" arrows="1" fold="1" page="1" pageScale="1" pageWidth="827" pageHeight="1169" math="0" shadow="0">
      <root>
        <mxCell id="WIyWlLk6GJQsqaUBKTNV-0" />
        <mxCell id="WIyWlLk6GJQsqaUBKTNV-1" parent="WIyWlLk6GJQsqaUBKTNV-0" />
        <mxCell id="Tvve-9ph4JAeuB2N8zXx-4" value="" style="edgeStyle=orthogonalEdgeStyle;rounded=0;orthogonalLoop=1;jettySize=auto;html=1;" edge="1" parent="WIyWlLk6GJQsqaUBKTNV-1" source="Tvve-9ph4JAeuB2N8zXx-0" target="Tvve-9ph4JAeuB2N8zXx-3">
          <mxGeometry relative="1" as="geometry" />
        </mxCell>
        <mxCell id="Tvve-9ph4JAeuB2N8zXx-0" value="Algus" style="ellipse;whiteSpace=wrap;html=1;" vertex="1" parent="WIyWlLk6GJQsqaUBKTNV-1">
          <mxGeometry x="270" y="260" width="120" height="50" as="geometry" />
        </mxCell>
        <mxCell id="Tvve-9ph4JAeuB2N8zXx-10" value="" style="edgeStyle=orthogonalEdgeStyle;rounded=0;orthogonalLoop=1;jettySize=auto;html=1;" edge="1" parent="WIyWlLk6GJQsqaUBKTNV-1" source="Tvve-9ph4JAeuB2N8zXx-3">
          <mxGeometry relative="1" as="geometry">
            <mxPoint x="330.0999999999999" y="585" as="targetPoint" />
          </mxGeometry>
        </mxCell>
        <mxCell id="Tvve-9ph4JAeuB2N8zXx-3" value="Kuva kasutajale tekst &quot;Joonistan sulle kolmnurga. Sisesta kolmnurga suurus&quot;" style="shape=parallelogram;perimeter=parallelogramPerimeter;whiteSpace=wrap;html=1;fixedSize=1;" vertex="1" parent="WIyWlLk6GJQsqaUBKTNV-1">
          <mxGeometry x="232.5" y="420" width="195" height="70" as="geometry" />
        </mxCell>
        <mxCell id="Tvve-9ph4JAeuB2N8zXx-12" value="" style="edgeStyle=orthogonalEdgeStyle;rounded=0;orthogonalLoop=1;jettySize=auto;html=1;" edge="1" parent="WIyWlLk6GJQsqaUBKTNV-1" target="Tvve-9ph4JAeuB2N8zXx-11">
          <mxGeometry relative="1" as="geometry">
            <mxPoint x="330" y="655" as="sourcePoint" />
          </mxGeometry>
        </mxCell>
        <mxCell id="Tvve-9ph4JAeuB2N8zXx-14" value="" style="edgeStyle=orthogonalEdgeStyle;rounded=0;orthogonalLoop=1;jettySize=auto;html=1;" edge="1" parent="WIyWlLk6GJQsqaUBKTNV-1" source="Tvve-9ph4JAeuB2N8zXx-11" target="Tvve-9ph4JAeuB2N8zXx-13">
          <mxGeometry relative="1" as="geometry" />
        </mxCell>
        <mxCell id="Tvve-9ph4JAeuB2N8zXx-11" value="Tekkime uus muutuja nimega &quot;i&quot; mille sees paneme 1" style="shape=parallelogram;perimeter=parallelogramPerimeter;whiteSpace=wrap;html=1;fixedSize=1;" vertex="1" parent="WIyWlLk6GJQsqaUBKTNV-1">
          <mxGeometry x="216.25" y="735" width="227.5" height="70" as="geometry" />
        </mxCell>
        <mxCell id="Tvve-9ph4JAeuB2N8zXx-15" style="edgeStyle=orthogonalEdgeStyle;rounded=0;orthogonalLoop=1;jettySize=auto;html=1;exitX=1;exitY=0.5;exitDx=0;exitDy=0;" edge="1" parent="WIyWlLk6GJQsqaUBKTNV-1" source="Tvve-9ph4JAeuB2N8zXx-13" target="Tvve-9ph4JAeuB2N8zXx-16">
          <mxGeometry relative="1" as="geometry">
            <mxPoint x="600" y="1250" as="targetPoint" />
          </mxGeometry>
        </mxCell>
        <mxCell id="Tvve-9ph4JAeuB2N8zXx-23" value="JAH" style="edgeLabel;html=1;align=center;verticalAlign=middle;resizable=0;points=[];" vertex="1" connectable="0" parent="Tvve-9ph4JAeuB2N8zXx-15">
          <mxGeometry x="-0.8544" relative="1" as="geometry">
            <mxPoint as="offset" />
          </mxGeometry>
        </mxCell>
        <mxCell id="Tvve-9ph4JAeuB2N8zXx-18" style="edgeStyle=orthogonalEdgeStyle;rounded=0;orthogonalLoop=1;jettySize=auto;html=1;exitX=0.5;exitY=1;exitDx=0;exitDy=0;" edge="1" parent="WIyWlLk6GJQsqaUBKTNV-1" source="Tvve-9ph4JAeuB2N8zXx-13" target="Tvve-9ph4JAeuB2N8zXx-17">
          <mxGeometry relative="1" as="geometry" />
        </mxCell>
        <mxCell id="Tvve-9ph4JAeuB2N8zXx-22" value="EI" style="edgeLabel;html=1;align=center;verticalAlign=middle;resizable=0;points=[];" vertex="1" connectable="0" parent="Tvve-9ph4JAeuB2N8zXx-18">
          <mxGeometry x="-0.425" y="-1" relative="1" as="geometry">
            <mxPoint as="offset" />
          </mxGeometry>
        </mxCell>
        <mxCell id="Tvve-9ph4JAeuB2N8zXx-13" value="Kas muutuja &quot;i&quot; sisu on väiksem või sama suurus kui &quot;kolmnurgaSuurus&quot; muutuja väärtus" style="rhombus;whiteSpace=wrap;html=1;" vertex="1" parent="WIyWlLk6GJQsqaUBKTNV-1">
          <mxGeometry x="245" y="890" width="170" height="140" as="geometry" />
        </mxCell>
        <mxCell id="Tvve-9ph4JAeuB2N8zXx-16" value="Lõpp" style="ellipse;whiteSpace=wrap;html=1;" vertex="1" parent="WIyWlLk6GJQsqaUBKTNV-1">
          <mxGeometry x="580" y="1890" width="120" height="80" as="geometry" />
        </mxCell>
        <mxCell id="Tvve-9ph4JAeuB2N8zXx-26" value="" style="edgeStyle=orthogonalEdgeStyle;rounded=0;orthogonalLoop=1;jettySize=auto;html=1;" edge="1" parent="WIyWlLk6GJQsqaUBKTNV-1" source="Tvve-9ph4JAeuB2N8zXx-17" target="Tvve-9ph4JAeuB2N8zXx-25">
          <mxGeometry relative="1" as="geometry" />
        </mxCell>
        <mxCell id="Tvve-9ph4JAeuB2N8zXx-17" value="Asetame käsureale uue, tühja rea kasutades &quot;Console.WriteLine();&quot;" style="shape=parallelogram;perimeter=parallelogramPerimeter;whiteSpace=wrap;html=1;fixedSize=1;" vertex="1" parent="WIyWlLk6GJQsqaUBKTNV-1">
          <mxGeometry x="247.5" y="1200" width="165" height="70" as="geometry" />
        </mxCell>
        <mxCell id="Tvve-9ph4JAeuB2N8zXx-24" value="Ootame kuni kasutaja sisestab täisarvu muutujase kolmnurgaSuurus" style="rounded=0;whiteSpace=wrap;html=1;" vertex="1" parent="WIyWlLk6GJQsqaUBKTNV-1">
          <mxGeometry x="270" y="584.5" width="120" height="60" as="geometry" />
        </mxCell>
        <mxCell id="Tvve-9ph4JAeuB2N8zXx-28" value="" style="edgeStyle=orthogonalEdgeStyle;rounded=0;orthogonalLoop=1;jettySize=auto;html=1;" edge="1" parent="WIyWlLk6GJQsqaUBKTNV-1" source="Tvve-9ph4JAeuB2N8zXx-25" target="Tvve-9ph4JAeuB2N8zXx-27">
          <mxGeometry relative="1" as="geometry" />
        </mxCell>
        <mxCell id="Tvve-9ph4JAeuB2N8zXx-25" value="Tekkime teise tsükli muutuja &quot;j&quot; millele ka paneme algväärtuseks täisarvu 1" style="shape=parallelogram;perimeter=parallelogramPerimeter;whiteSpace=wrap;html=1;fixedSize=1;" vertex="1" parent="WIyWlLk6GJQsqaUBKTNV-1">
          <mxGeometry x="247.5" y="1350" width="165" height="70" as="geometry" />
        </mxCell>
        <mxCell id="Tvve-9ph4JAeuB2N8zXx-30" value="" style="edgeStyle=orthogonalEdgeStyle;rounded=0;orthogonalLoop=1;jettySize=auto;html=1;" edge="1" parent="WIyWlLk6GJQsqaUBKTNV-1" source="Tvve-9ph4JAeuB2N8zXx-27" target="Tvve-9ph4JAeuB2N8zXx-29">
          <mxGeometry relative="1" as="geometry" />
        </mxCell>
        <mxCell id="Tvve-9ph4JAeuB2N8zXx-31" value="EI" style="edgeLabel;html=1;align=center;verticalAlign=middle;resizable=0;points=[];" vertex="1" connectable="0" parent="Tvve-9ph4JAeuB2N8zXx-30">
          <mxGeometry x="-0.3333" y="2" relative="1" as="geometry">
            <mxPoint as="offset" />
          </mxGeometry>
        </mxCell>
        <mxCell id="Tvve-9ph4JAeuB2N8zXx-35" style="edgeStyle=orthogonalEdgeStyle;rounded=0;orthogonalLoop=1;jettySize=auto;html=1;exitX=1;exitY=0.5;exitDx=0;exitDy=0;entryX=0;entryY=0.5;entryDx=0;entryDy=0;" edge="1" parent="WIyWlLk6GJQsqaUBKTNV-1" source="Tvve-9ph4JAeuB2N8zXx-27" target="Tvve-9ph4JAeuB2N8zXx-34">
          <mxGeometry relative="1" as="geometry" />
        </mxCell>
        <mxCell id="Tvve-9ph4JAeuB2N8zXx-27" value="Kas muutuja &quot;j&quot; sisu on väiksem või sama suurus kui &quot;i&quot; muutuja väärtus" style="rhombus;whiteSpace=wrap;html=1;" vertex="1" parent="WIyWlLk6GJQsqaUBKTNV-1">
          <mxGeometry x="240" y="1540" width="180" height="80" as="geometry" />
        </mxCell>
        <mxCell id="Tvve-9ph4JAeuB2N8zXx-33" value="" style="edgeStyle=orthogonalEdgeStyle;rounded=0;orthogonalLoop=1;jettySize=auto;html=1;" edge="1" parent="WIyWlLk6GJQsqaUBKTNV-1" source="Tvve-9ph4JAeuB2N8zXx-29" target="Tvve-9ph4JAeuB2N8zXx-32">
          <mxGeometry relative="1" as="geometry" />
        </mxCell>
        <mxCell id="Tvve-9ph4JAeuB2N8zXx-29" value="Kirjutame eksisteerivale käsureale juurde sõne &quot;T&quot;" style="shape=parallelogram;perimeter=parallelogramPerimeter;whiteSpace=wrap;html=1;fixedSize=1;" vertex="1" parent="WIyWlLk6GJQsqaUBKTNV-1">
          <mxGeometry x="270" y="1710" width="120" height="60" as="geometry" />
        </mxCell>
        <mxCell id="Tvve-9ph4JAeuB2N8zXx-50" style="edgeStyle=orthogonalEdgeStyle;rounded=0;orthogonalLoop=1;jettySize=auto;html=1;exitX=0;exitY=0.5;exitDx=0;exitDy=0;entryX=0;entryY=0.5;entryDx=0;entryDy=0;" edge="1" parent="WIyWlLk6GJQsqaUBKTNV-1" source="Tvve-9ph4JAeuB2N8zXx-32" target="Tvve-9ph4JAeuB2N8zXx-27">
          <mxGeometry relative="1" as="geometry">
            <Array as="points">
              <mxPoint x="220" y="1910" />
              <mxPoint x="220" y="1750" />
              <mxPoint x="218" y="1750" />
              <mxPoint x="218" y="1580" />
            </Array>
          </mxGeometry>
        </mxCell>
        <mxCell id="Tvve-9ph4JAeuB2N8zXx-32" value="Inkrementeerime muutujat &quot;j&quot; ühe võrra" style="shape=parallelogram;perimeter=parallelogramPerimeter;whiteSpace=wrap;html=1;fixedSize=1;" vertex="1" parent="WIyWlLk6GJQsqaUBKTNV-1">
          <mxGeometry x="237.5" y="1880" width="185" height="60" as="geometry" />
        </mxCell>
        <mxCell id="Tvve-9ph4JAeuB2N8zXx-48" value="" style="edgeStyle=orthogonalEdgeStyle;rounded=0;orthogonalLoop=1;jettySize=auto;html=1;" edge="1" parent="WIyWlLk6GJQsqaUBKTNV-1" source="Tvve-9ph4JAeuB2N8zXx-34" target="Tvve-9ph4JAeuB2N8zXx-27">
          <mxGeometry relative="1" as="geometry" />
        </mxCell>
        <mxCell id="Tvve-9ph4JAeuB2N8zXx-49" value="JAH" style="edgeLabel;html=1;align=center;verticalAlign=middle;resizable=0;points=[];" vertex="1" connectable="0" parent="Tvve-9ph4JAeuB2N8zXx-48">
          <mxGeometry x="0.1088" y="-3" relative="1" as="geometry">
            <mxPoint as="offset" />
          </mxGeometry>
        </mxCell>
        <mxCell id="Tvve-9ph4JAeuB2N8zXx-51" style="edgeStyle=orthogonalEdgeStyle;rounded=0;orthogonalLoop=1;jettySize=auto;html=1;exitX=0.85;exitY=-0.044;exitDx=0;exitDy=0;exitPerimeter=0;" edge="1" parent="WIyWlLk6GJQsqaUBKTNV-1" source="Tvve-9ph4JAeuB2N8zXx-34" target="Tvve-9ph4JAeuB2N8zXx-13">
          <mxGeometry relative="1" as="geometry">
            <mxPoint x="420" y="950" as="targetPoint" />
            <mxPoint x="597.5" y="1570" as="sourcePoint" />
            <Array as="points">
              <mxPoint x="592" y="1590" />
              <mxPoint x="598" y="1590" />
              <mxPoint x="598" y="1500" />
              <mxPoint x="451" y="1500" />
              <mxPoint x="451" y="900" />
            </Array>
          </mxGeometry>
        </mxCell>
        <mxCell id="Tvve-9ph4JAeuB2N8zXx-34" value="Inkrementeerime muutujat &quot;i&quot; ühe võrra" style="shape=parallelogram;perimeter=parallelogramPerimeter;whiteSpace=wrap;html=1;fixedSize=1;" vertex="1" parent="WIyWlLk6GJQsqaUBKTNV-1">
          <mxGeometry x="490" y="1550" width="120" height="60" as="geometry" />
        </mxCell>
      </root>
    </mxGraphModel>
  </diagram>
</mxfile>
